<svg xmlns="http://www.w3.org/2000/svg" xml:space="preserve" viewBox="0 0 32 32" id="instagram">
  <g id="GLYPH">
    <path d="M16 32c8.837 0 16-7.163 16-16S24.837 0 16 0 0 7.163 0 16s7.163 16 16 16zm0-29.809c7.626 0 13.809 6.182 13.809 13.809S23.626 29.809 16 29.809 2.191 23.626 2.191 16 8.374 2.191 16 2.191z"></path>
    <path d="M11.406 21.012h9.189c.292 0 .418-.125.418-.418v-5.847l-1.021.226c.112.363.172.748.172 1.146 0 2.222-1.859 4.024-4.153 4.024-2.293 0-4.153-1.803-4.153-4.024 0-.399.061-.783.172-1.146l-1.041-.226v5.847c-.001.293.125.418.417.418zM18.924 13.494h1.671a.418.418 0 0 0 .418-.418v-1.671a.418.418 0 0 0-.418-.418h-1.671a.418.418 0 0 0-.418.418v1.671c0 .231.187.418.418.418z"></path>
    <ellipse cx="16.01" cy="15.975" rx="2.683" ry="2.6"></ellipse>
    <path d="M16 27.597c6.405 0 11.597-5.192 11.597-11.597S22.405 4.403 16 4.403 4.403 9.595 4.403 16 9.595 27.597 16 27.597zM9.317 10.988c0-.944.727-1.671 1.671-1.671h10.024c.943 0 1.671.727 1.671 1.671v10.024c0 .943-.728 1.671-1.671 1.671H10.988a1.645 1.645 0 0 1-1.671-1.671V10.988z"></path>
  </g>
</svg>
