<svg xmlns="http://www.w3.org/2000/svg" xml:space="preserve" viewBox="0 0 32 32" id="periscope">
  <g id="GLYPH">
    <path d="M16 0C7.163 0 0 7.163 0 16s7.163 16 16 16 16-7.163 16-16S24.837 0 16 0zm0 29.809C8.374 29.809 2.191 23.626 2.191 16S8.374 2.191 16 2.191 29.809 8.374 29.809 16 23.626 29.809 16 29.809z"></path>
    <path d="M16.114 10.218c-.363 0-.706.057-1.039.139.544.244.925.783.925 1.412a1.56 1.56 0 0 1-1.567 1.551 1.56 1.56 0 0 1-1.566-1.538 4.037 4.037 0 0 0-.856 2.497c0 2.068 1.786 3.836 4.103 3.836 2.089 0 3.875-1.768 3.875-3.836 0-2.293-1.786-4.061-3.875-4.061z"></path>
    <path d="M16 4.403C9.595 4.403 4.403 9.595 4.403 16S9.595 27.597 16 27.597 27.597 22.405 27.597 16 22.405 4.403 16 4.403zm.092 19.917c-1.486 0-6.645-5.851-6.645-9.773 0-3.755 2.934-6.867 6.645-6.867 3.527 0 6.461 3.112 6.461 6.867 0 3.922-5.159 9.773-6.461 9.773z"></path>
  </g>
</svg>
